<svg width="100" height="100" viewBox="0 0 100 100" xmlns="http://www.w3.org/2000/svg">
  <!-- Wheat stalks -->
  <g stroke="#F59E0B" stroke-width="2" fill="none">
    <!-- Left wheat stalk -->
    <path d="M25 80 L30 20" stroke-linecap="round"/>
    <path d="M27 25 L25 22 L27 20 L29 22 L27 25"/>
    <path d="M27 35 L25 32 L27 30 L29 32 L27 35"/>
    <path d="M27 45 L25 42 L27 40 L29 42 L27 45"/>
    <path d="M27 55 L25 52 L27 50 L29 52 L27 55"/>
    <path d="M27 65 L25 62 L27 60 L29 62 L27 65"/>
    
    <!-- Right wheat stalk -->
    <path d="M40 80 L35 20" stroke-linecap="round"/>
    <path d="M37 25 L35 22 L37 20 L39 22 L37 25"/>
    <path d="M37 35 L35 32 L37 30 L39 32 L37 35"/>
    <path d="M37 45 L35 42 L37 40 L39 42 L37 45"/>
    <path d="M37 55 L35 52 L37 50 L39 52 L37 55"/>
    <path d="M37 65 L35 62 L37 60 L39 62 L37 65"/>
    
    <!-- Center wheat stalk -->
    <path d="M32 82 L32 18" stroke-linecap="round"/>
    <path d="M32 23 L30 20 L32 18 L34 20 L32 23"/>
    <path d="M32 33 L30 30 L32 28 L34 30 L32 33"/>
    <path d="M32 43 L30 40 L32 38 L34 40 L32 43"/>
    <path d="M32 53 L30 50 L32 48 L34 50 L32 53"/>
    <path d="M32 63 L30 60 L32 58 L34 60 L32 63"/>
    <path d="M32 73 L30 70 L32 68 L34 70 L32 73"/>
  </g>
  
  <!-- Dollar sign integrated into center stalk -->
  <g fill="#22C55E" stroke="#22C55E" stroke-width="1.5">
    <!-- Dollar sign curves -->
    <path d="M45 35 Q50 30 55 35 Q60 40 55 45 Q50 50 45 45 Q40 40 45 35 Z" fill="#22C55E" opacity="0.8"/>
    <path d="M45 50 Q50 45 55 50 Q60 55 55 60 Q50 65 45 60 Q40 55 45 50 Z" fill="#22C55E" opacity="0.8"/>
    <!-- Dollar sign vertical line -->
    <line x1="50" y1="30" x2="50" y2="70" stroke="#22C55E" stroke-width="3" stroke-linecap="round"/>
  </g>
  
  <!-- Harvest/growth elements -->
  <g fill="#F59E0B" opacity="0.6">
    <circle cx="22" cy="15" r="1"/>
    <circle cx="38" cy="12" r="1"/>
    <circle cx="55" cy="25" r="1"/>
    <circle cx="65" cy="35" r="1"/>
  </g>
</svg>